/* XPM */
static char *_bfbd38ade344a84a40a644752e9029276RPuLRiKaoR2Jw3[] = {
/* columns rows colors chars-per-pixel */
"64 64 7 1 ",
"  c None",
". c black",
"X c #31550F",
"o c #457D0F",
"O c #79F204",
"+ c #99E550",
"@ c white",
/* pixels */
"                                                                ",
"                                                                ",
"                                                                ",
"                                                                ",
"                                                                ",
"                                                                ",
"                         @@@@@ @@ @@@@@                         ",
"                        @@@@@@@@@@@@@@@@                        ",
"                       @@@@@@@@@@@@@@@@@@                       ",
"                      @@@....@@@@@@....@@@                      ",
"                    @@@@......@@@@......@@@@                    ",
"                   @@@@......+.@@.+......@@@@                   ",
"                  @@@@...OOO..XXXX..OOO...@@@@                  ",
"                 @@@@...OXXXXXXOOXXXXXXO...@@@@                 ",
"               @@@@@....XXXXXXOOOOXXXXXX....@@@@@               ",
"              @@@@@....XOOOXXXOOOOXXXOOOX....@@@@@              ",
"             @@@@@....XOOOOOXXOOOOXXOOOOOX....@@@@@             ",
"            @@@@.....XXXOOOXooOOOOooXOOOXXX.....@@@@            ",
"           @@@@.....XXXOOOooOOOOOOOOooOOOXXX.....@@@@           ",
"          @@@@.....XXXXOOOOOOOOOOOOOOOOOOXXXX.....@@@@          ",
"         @@@@.....XOOXXoOOOOOOO++OOOOOOOoXXOOX.....@@@@         ",
"         @@@...+.XOOOOooOOOOOO++++OOOOOOooOOOOX.+...@@@         ",
"        @@@...++XOOOOOOOOOOO+++..+++OOOOOOOOOOOX++...@@@        ",
"       @@@...+ XXOOOoOOOOOO++++..++++OOOOOOoOOOXX +...@@@       ",
"       @@@...+XXXXOooOOOOO++++....++++OOOOOooOXXXX+...@@@       ",
"      @@@...++.XXXoooOOOO++++......++++OOOOoooXXX.++...@@@      ",
"      @@@...+.XXXoooOOOO+++++......+++++OOOOoooXXX.+...@@@      ",
"      @@@.....XXXooOOOOO++++........++++OOOOOooXXX.....@@@      ",
"      @@@.....XXooOOOOOO++++........++++OOOOOOooXX.....@@@      ",
"      @@@....XOOOOOOOOOO++++...@@...++++OOOOOOOOOOX....@@@      ",
"       @@@...OOOOOOOOOOO+++...@@@@...+++OOOOOOOOOOO...@@@       ",
"       @@@...XOOOOOOOOOO+++...@@@@...+++OOOOOOOOOOX...@@@       ",
"       @@@...XOOOOOOOOOO+++...@@@@...+++OOOOOOOOOOX...@@@       ",
"       @@@...OOOOOOOOOOO+++...@@@@...+++OOOOOOOOOOO...@@@       ",
"      @@@....XOOOOOOOOOO++++...@@...++++OOOOOOOOOOX....@@@      ",
"      @@@.....XXooOOOOOO++++........++++OOOOOOooXX.....@@@      ",
"      @@@.....XXXooOOOOO++++........++++OOOOOooXXX.....@@@      ",
"      @@@...+.XXXoooOOOO+++++......+++++OOOOoooXXX.+...@@@      ",
"      @@@...++.XXXoooOOOO++++......++++OOOOoooXXX.++...@@@      ",
"       @@@...+XXXXOooOOOOO++++....++++OOOOOooOXXXX+...@@@       ",
"       @@@...+ XXOOOoOOOOOO++++..++++OOOOOOoOOOXX +...@@@       ",
"        @@@...++XOOOOOOOOOOO+++..+++OOOOOOOOOOOX++...@@@        ",
"         @@@...+.XOOOOooOOOOOO++++OOOOOOooOOOOX.+...@@@         ",
"         @@@@.....XOOXXoOOOOOOO++OOOOOOOoXXOOX.....@@@@         ",
"          @@@@.....XXXXOOOOOOOOOOOOOOOOOOXXXX.....@@@@          ",
"           @@@@.....XXXOOOooOOOOOOOOooOOOXXX.....@@@@           ",
"            @@@@.....XXXOOOXooOOOOooXOOOXXX.....@@@@            ",
"             @@@@@....XOOOOOXXOOOOXXOOOOOX....@@@@@             ",
"              @@@@@....XOOOXXXOOOOXXXOOOX....@@@@@              ",
"               @@@@@....XXXXXXOOOOXXXXXX....@@@@@               ",
"                 @@@@...OXXXXXXOOXXXXXXO...@@@@                 ",
"                  @@@@...OOO..XXXX..OOO...@@@@                  ",
"                   @@@@......+.@@.+......@@@@                   ",
"                    @@@@......@@@@......@@@@                    ",
"                      @@@....@@@@@@....@@@                      ",
"                       @@@@@@@@@@@@@@@@@@                       ",
"                        @@@@@@@@@@@@@@@@                        ",
"                         @@@@@ @@ @@@@@                         ",
"                                                                ",
"                                                                ",
"                                                                ",
"                                                                ",
"                                                                ",
"                                                                "
};
