/* XPM */
static char *c76b13587bfc429c83e9d304a4dbb888YlQkC2H2ixnhYmsn[] = {
/* columns rows colors chars-per-pixel */
"64 64 6 1 ",
"  c None",
". c black",
"X c #8F563B",
"o c #CE8859",
"O c #847E87",
"+ c white",
/* pixels */
"                      ++++++++++++++++++++                      ",
"                     +++++++++.+..+++++++++                     ",
"                   +++++++++....O...+++++++++                   ",
"                  ++++++++..OO.OO.OO..++++++++                  ",
"                 ++++++...OOOOO..OOOOO...++++++                 ",
"                ++++++.OOO.OOO....OOO.OOO.++++++                ",
"               +++++..OOOO.O........O.OOOO..+++++               ",
"              +++++.O.OOOO..Xo.XX.XX..OOOO.O.+++++              ",
"             +++++.OOO.O..XXXoXXXXXXXo..O.OOO.+++++             ",
"            +++++.OOOO..XXXXXoXXXXXXXoXX..OOOO.+++++            ",
"           ++++++.OOO.oXXXXXXoXXXXXXXoXXXX.OOO.++++++           ",
"           +++++..OO.XoXXXXXXoXXXXXXXoXXXXX.OO..+++++           ",
"           ++++.OO..XXoXXXXXXoXXXXXXXoXXXXXo..OO.++++           ",
"           ++++.OO.XXXoXXXXXXoXXXXXXXoXXXXXoX.OO.++++           ",
"           ++++.OO.XXXoXXXXXXoXXXXXXXoXXXXXoX.OO.++++           ",
"          ++++.OO.XXXXoXXXXXXoXXXXXXXoXXXXXoXX.OO.++++          ",
"         ++++..OO.XXXXoXXXXXXoXXXXXXXoXXXXXoXX.OO..++++         ",
"         ++++.O.O.XXXXoXXXXXXoXXXXXXXoXXXXXoXX.O.O.++++         ",
"         ++++.OO..XXXXoXXXXXXoXXXXXXXoXXXXXoXX..OO.++++         ",
"         ++++.OO.XXXXXoXXXXXXoXXXXXXXoXXXXXoXXX.OO.++++         ",
"         ++++.OO.XXXXXoXXXXXXoXXXXXXXoXXXXXoXXX.OO.++++         ",
"         ++++.OO.XXXXXoXXXXXXoXXXXXXXoXXXXXoXXX.OO.++++         ",
"         ++++....XXXXXoXXXXXXoXXXXXXXoXXXXXoXXX....++++         ",
"         ++++.OO.XXXXXoXXXXXXoXXXXXXXoXXXXXoXXX.  .++++         ",
"         ++++.OO.XXXXXoXXXXXXoXXXXXXXoXXXXXoXXX.  .++++         ",
"         ++++.OO.XXXXXoXXXXXXoXXXXXXXoXXXXXoXXX.  .++++         ",
"         ++++.OO.XXXXXoXXXXXXoXXXXXXXoXXXXX.....  .++++         ",
"         ++++....XXXXXoXXXXXXoXXXXXXXoXXXX.OO.O....++++         ",
"         ++++.OO.XXXXXoXXXXXXoXXXXXXXoXXXX.OO.O.OO.++++         ",
"         ++++.OO.XXXXXoXXXXXXoXXXXXXXoXXXXX.....OO.++++         ",
"         ++++.OO.XXXXXoXXXXXXoXXXXXXXoXXXXXoXXX.OO.++++         ",
"         ++++.OO.X.......XXXXoXXXXXXXoXXXXXoXXX.OO.++++         ",
"         ++++....XX.....XXXXXoXXXXXXXoXXXXXoXXX....++++         ",
"         ++++.OO.XXX...XXXXXXoXXXXXXXoXXXXXoXXX.OO.++++         ",
"         ++++.OO.XX.XXX.XXXXXoXXXXXXXoXXXXXoXXX.OO.++++         ",
"         ++++.OO.X.XXXXX.XXXXoXXXXXXXoXXXXXoXXX.OO.++++         ",
"         ++++.OO.XX.XXX.XXXXXoXXXXXXXoXXXXX.....OO.++++         ",
"         ++++.OO.XXX...XXXXXXoXXXXXXXoXXXX.OO.O.OO.++++         ",
"         ++++....XXXXXoXXXXXXoXXXXXXXoXXXX.OO.O....++++         ",
"         ++++.OO.XXXXXoXXXXXXoXXXXXXXoXXXXX.....OO.++++         ",
"         ++++.OO.XXXXXoXXXXXXoXXXXXXXoXXXXXoXXX.OO.++++         ",
"         ++++.OO.XXXXXoXXXXXXoXXXXXXXoXXXXXoXXX.OO.++++         ",
"         ++++.OO.XXXXXoXXXXXXoXXXXXXXoXXXXXoXXX.OO.++++         ",
"         ++++.OO.XXXXXoXXXXXXoXXXXXXXoXXXXXoXXX.OO.++++         ",
"         ++++.OO.XXXXXoXXXXXXoXXXXXXXoXXXXXoXXX.OO.++++         ",
"         ++++....XXXXXoXXXXXXoXXXXXXXoXXXXXoXXX....++++         ",
"         ++++.OO.XXXXXoXXXXXXoXXXXXXXoXXXXXoXXX.OO.++++         ",
"         ++++.OO.XXXXXoXXXXXXoXXXXXXXoXXXXXoXXX.OO.++++         ",
"         ++++.OO.XXXXXoXXXXXXoXXXXXXXoXXXXXoXXX.OO.++++         ",
"         ++++.OO.XXXXXoXXXXXXoXXXXXXXoXXXXXoXXX.OO.++++         ",
"         ++++.OO.XXXXXoXXXXXXoXXXXXXXoXXXXXoXXX.OO.++++         ",
"         ++++.OO.XXXXXoXXXXXXoXXXXXXXoXXXXXoXXX.OO.++++         ",
"         ++++....XXXXXoXXXXXXoXXXXXXXoXXXXXoXXX....++++         ",
"         ++++.OO.XXXXXoXXXXXXoXXXXXXXoXXXXXoXXX.OO.++++         ",
"         ++++.OO.XXXXXoXXXXXXoXXXXXXXoXXXXXoXXX.OO.++++         ",
"         ++++.OO.XXXXXoXXXXXXoXXXXXXXoXXXXXoXXX.OO.++++         ",
"         ++++.OO.XXXXXoXXXXXXoXXXXXXXoXXXXXoXXX.OO.++++         ",
"         ++++.OO.XXXXXoXXXXXXoXXXXXXXoXXXXXoXXX.OO.++++         ",
"         ++++.OO.XXXXXoXXXXXXoXXXXXXXoXXXXXoXXX.OO.++++         ",
"         ++++.OO.XXXXXoXXXXXXoXXXXXXXoXXXXXoXXX.OO.++++         ",
"         +++++....................................+++++         ",
"         ++++++++++++++++++++++++++++++++++++++++++++++         ",
"          ++++++++++++++++++++++++++++++++++++++++++++          ",
"           ++++++++++++++++++++++++++++++++++++++++++           "
};
