/* XPM */
static char *_d91259230354fb6f18e3e3349023a8eNyYsFgOX19UPekfq[] = {
/* columns rows colors chars-per-pixel */
"64 64 10 1 ",
"  c None",
". c black",
"X c #372B2B",
"o c #640707",
"O c #691D1D",
"+ c #A80000",
"@ c #D60F0F",
"# c #5FCDE4",
"$ c #93C7D1",
"% c white",
/* pixels */
"                                                                ",
"                                                                ",
"                                                                ",
"                                                                ",
"                                                                ",
"                                                                ",
"                                                                ",
"                                                                ",
"                                      %%%                       ",
"                               %%    %...%                      ",
"                            %%%..%% %.@+o.%                     ",
"                           %%..@@..%.@++o.%                     ",
"                          %...@@@@@.@@+o.%                      ",
"                         %.@@@@@@@@@@+oo.%                      ",
"                        %.@@@@@..@@@@+oo.%                      ",
"                       %.@@@@@.X..@@@+o.%                       ",
"                      %.@@@@@.XXXX.@@+o.%%                      ",
"                     %.+@@@@.XXXXXX.@@oo.%                      ",
"                     %.@@@@.XXXXXXXX.@+oo.%%                    ",
"                    %.+@@@.XXXXXXXXXX.@oo..%                    ",
"                   %.+@@@.XXXXXXXXXXXX.@+oo.%                   ",
"                  %.@@@@@.XXXXXXXXXXXX.++ooo.%                  ",
"                  %.@@@@.XXX##XXXX##XXX.+ooo.%                  ",
"                  %.@@@.XXX##$#XX##$#XXX..oo.%                  ",
"                  %.@@@.XXX####XX####XXX.+oo.%                  ",
"                  %.@@.XXXXX##XXXX##XXXX.+oo.%                  ",
"                  %.@@@.XXXXXXXXXXXXXXXX.ooo.%                  ",
"                  %.@@@+.XXXXXXXXXXXXXXX.ooo.%                  ",
"                  %.@@@@.XXXXXXXXXXXXXXX.ooo.%                  ",
"                  %.@@@@.XXXXXXXXXXXXXX.++oo.%                  ",
"                  %%.@@@@.XXXXXXXXXXXX.++oo.%                   ",
"                   %.@@@@@..XXXXXXXX..+++oo.%                   ",
"                    %.@@@@@+.........+++oo.%                    ",
"                     %.@@@@@@@@@@@+++++oo.%                     ",
"                     %%.@@@@@@@@@@++++oo.%                      ",
"                      %%.@@@@@@@@@@@+oo.%                       ",
"                       %.@@@@@@@@@@++oo.%%                      ",
"                      %.@@@@@@@@@@+++oo..%                      ",
"                     %.@@@@@@@@@@@+++oooo.%                     ",
"                    %.@@@@@@@@@@@@+++ooooo.%                    ",
"                   %.@@@@@@@@@@@@+++++ooooo.%                   ",
"                   %.@@@@@@@@@@@+++++++oooo.%                   ",
"                   %.@@@@@@@@@@@+++++++oooo.%%                  ",
"                  %.@@@@@@@@@@@@+++++++ooooo.%                  ",
"                  %.@@@@@@@@@@@+++++++++ooooo%                  ",
"                  %.@@@@@@@@@@@++++++++++oooo%%                 ",
"                 %.@@@@@@@@@@@++++++++++++ooo.%                 ",
"                 %.@@@@@@@@@@+++++++++++++ooo.%                 ",
"                 %.@@@@@@@@@@+++++++++++++ooo.%                 ",
"                 %.@+@@@@@@@++++++++++++++ooo.%                 ",
"                 %.+++@@.@@+++++++++++++++ooo.%                 ",
"                 %.+++++.@+++++++++++++.ooooo.%                 ",
"                 %.++++..@+++++++++++++.ooooo.%                 ",
"                  %.+++.+@+++++++++++++...oo.%%                 ",
"                   %.++.++++++++++++++++....%%                  ",
"                    %...++++++++++++++++.%%%%                   ",
"                     %%.OO++++++.+++++++.%                      ",
"                      %.OO.++++...+++.+O.%                      ",
"                      %.O.%.O......+.%.+.%                      ",
"                       %.% %.%%..%%.%%%.%%                      ",
"                        %   %% %%% %  %%%                       ",
"                                                                ",
"                                                                ",
"                                                                "
};
