/* XPM */
static char *d5c219517a1342829f7331c6c5bce7eaYZHawdpwtMkDniUp[] = {
/* columns rows colors chars-per-pixel */
"64 64 2 1 ",
"  c black",
". c #222034",
/* pixels */
"                       ...........          .....           .   ",
" ..............      .............         ........        ...  ",
"................    .............         ..........       .... ",
" ................  ............      ... ............     ......",
"................. .............     ..... ....... ....   .......",
"................. ............     ....... ...........   .......",
".................  ...........    ......... ..........   .......",
".................   .........     .........  .........  ....... ",
"...      .........   .......     ...........  ........ ........ ",
".         .......     ......    ...........    ......  ........ ",
"             ..      ......     ...........     ....  ......... ",
"                     .....     ............          ...........",
" .........            ...     ............           ...........",
"...........            .     .............    ...     ..........",
"............                .............    ......    .........",
"......... ...    ...       .............    ........    ........",
"............   ......       ..........     ..........     ......",
"...........   ..........    .........     .............    .....",
"..........   .............   ... ....     ..............    ....",
".........   ...............   ... ...    ................     . ",
"........   .................   .....    ..................      ",
".......    ..................   ...    ....................     ",
"......      .................    .     .....................    ",
" ....        .. .............         ...........   ........    ",
"  .              ............        ...........     ......   . ",
"                   .........         ..........        ...   ...",
"            ..      .......          .........    ....      ....",
"....       ....             ....    .........    ......    .....",
".....    .......           ......    ......     ........  ......",
"......  ........... ..    ........    ..       .......... ......",
".....  ................    .......            ...........  .....",
"....   .................    .......          ...........   .....",
"...     .................   ........        ...........   ......",
"         ...............     ........      ...........   .......",
"  .       .............     ..........    ..........    ........",
" ...       ............    ............   ........     .........",
".......     ..........     .............  ........    ..........",
"..........   ........       ........ ... .........   ...........",
"...........   ......         ...... ...  ........    ...........",
"............    ....    .     ........   ........   ............",
".............          ...     ........   ......   ............ ",
".............        ......     .........  ....   ............  ",
"............ ..    ..........    .........         .....        ",
"........... ....   .............  ...  ....         ...         ",
"........   ......   .............  .... ...          .          ",
"   ...     .....     .............  ......      .       .....   ",
"          .....         ...........  ....      ...     .......  ",
"        .......    ....   .........    .      .....   ......... ",
"  ............    ......   .........         ......   ..........",
" .............   ........  .............    .......   ..........",
"..............  ... .....  ..............   .......    .........",
"............... .........   ..............  .......     ........",
"...............  .........   ....... . ... ........      .......",
"................  .........   ...........  .........      ......",
"...............   ..........   ..........  ..........      .....",
"..............    ...........  ..........  ...........      ....",
"...... ......    ............  ...... ...  ............    .....",
".....   ..      ............   ..... ...   ............   ......",
" ...            ...........   .....  ...  .............  .......",
"  .      ...   ...........     ........  .............   .......",
"       ......  ..........       ......  .............    .......",
"      ........  ........         ....    ..........      ...... ",
"     .........   .....                     ...            ....  ",
"    .........     .                                        ..   "
};
